<svg width="183" height="42" viewBox="0 0 183 42" fill="none" xmlns="http://www.w3.org/2000/svg">
<rect width="182.547" height="42" rx="10" fill="#44924C"/>
<path d="M32.0311 21.8442C31.4686 24.6567 29.348 27.3049 26.3723 27.8967C24.9211 28.1857 23.4156 28.0095 22.0703 27.3931C20.725 26.7768 19.6085 25.7517 18.8797 24.4638C18.1509 23.176 17.847 21.691 18.0112 20.2204C18.1755 18.7498 18.7995 17.3685 19.7945 16.2732C21.8352 14.0254 25.2811 13.4067 28.0936 14.5317" stroke="white" stroke-width="1.21875" stroke-linecap="round" stroke-linejoin="round"/>
<path d="M22.4688 20.7188L25.2812 23.5312L32.0312 16.2188" stroke="white" stroke-width="1.21875" stroke-linecap="round" stroke-linejoin="round"/>
<path d="M56.2297 19.252C56.2297 19.7747 56.1037 20.2647 55.8517 20.722C55.609 21.1793 55.2217 21.548 54.6897 21.828C54.167 22.108 53.5044 22.248 52.7017 22.248H51.0637V26H49.1037V16.228H52.7017C53.4577 16.228 54.1017 16.3587 54.6337 16.62C55.1657 16.8813 55.5624 17.2407 55.8237 17.698C56.0944 18.1553 56.2297 18.6733 56.2297 19.252ZM52.6177 20.666C53.159 20.666 53.5604 20.5447 53.8217 20.302C54.083 20.05 54.2137 19.7 54.2137 19.252C54.2137 18.3 53.6817 17.824 52.6177 17.824H51.0637V20.666H52.6177ZM57.1173 22.094C57.1173 21.31 57.2713 20.6147 57.5793 20.008C57.8966 19.4013 58.3213 18.9347 58.8533 18.608C59.3946 18.2813 59.9966 18.118 60.6593 18.118C61.2379 18.118 61.7419 18.2347 62.1713 18.468C62.6099 18.7013 62.9599 18.9953 63.2213 19.35V18.244H65.1953V26H63.2213V24.866C62.9693 25.23 62.6193 25.5333 62.1713 25.776C61.7326 26.0093 61.2239 26.126 60.6453 26.126C59.9919 26.126 59.3946 25.958 58.8533 25.622C58.3213 25.286 57.8966 24.8147 57.5793 24.208C57.2713 23.592 57.1173 22.8873 57.1173 22.094ZM63.2213 22.122C63.2213 21.646 63.1279 21.24 62.9413 20.904C62.7546 20.5587 62.5026 20.2973 62.1853 20.12C61.8679 19.9333 61.5273 19.84 61.1633 19.84C60.7993 19.84 60.4633 19.9287 60.1553 20.106C59.8473 20.2833 59.5953 20.5447 59.3993 20.89C59.2126 21.226 59.1193 21.6273 59.1193 22.094C59.1193 22.5607 59.2126 22.9713 59.3993 23.326C59.5953 23.6713 59.8473 23.9373 60.1553 24.124C60.4726 24.3107 60.8086 24.404 61.1633 24.404C61.5273 24.404 61.8679 24.3153 62.1853 24.138C62.5026 23.9513 62.7546 23.69 62.9413 23.354C63.1279 23.0087 63.2213 22.598 63.2213 22.122ZM69.0696 19.448C69.3216 19.0373 69.6482 18.7153 70.0496 18.482C70.4602 18.2487 70.9269 18.132 71.4496 18.132V20.19H70.9316C70.3156 20.19 69.8489 20.3347 69.5316 20.624C69.2236 20.9133 69.0696 21.4173 69.0696 22.136V26H67.1096V18.244H69.0696V19.448ZM75.0517 19.854V23.606C75.0517 23.8673 75.1124 24.0587 75.2337 24.18C75.3644 24.292 75.579 24.348 75.8777 24.348H76.7877V26H75.5557C73.9037 26 73.0777 25.1973 73.0777 23.592V19.854H72.1537V18.244H73.0777V16.326H75.0517V18.244H76.7877V19.854H75.0517ZM79.1914 17.32C78.8461 17.32 78.5568 17.2127 78.3234 16.998C78.0994 16.774 77.9874 16.4987 77.9874 16.172C77.9874 15.8453 78.0994 15.5747 78.3234 15.36C78.5568 15.136 78.8461 15.024 79.1914 15.024C79.5368 15.024 79.8214 15.136 80.0454 15.36C80.2788 15.5747 80.3954 15.8453 80.3954 16.172C80.3954 16.4987 80.2788 16.774 80.0454 16.998C79.8214 17.2127 79.5368 17.32 79.1914 17.32ZM80.1574 18.244V26H78.1974V18.244H80.1574ZM81.5899 22.122C81.5899 21.3193 81.7533 20.6193 82.0799 20.022C82.4066 19.4153 82.8593 18.9487 83.4379 18.622C84.0166 18.286 84.6793 18.118 85.4259 18.118C86.3873 18.118 87.1806 18.3607 87.8059 18.846C88.4406 19.322 88.8653 19.994 89.0799 20.862H86.9659C86.8539 20.526 86.6626 20.2647 86.3919 20.078C86.1306 19.882 85.8039 19.784 85.4119 19.784C84.8519 19.784 84.4086 19.9893 84.0819 20.4C83.7553 20.8013 83.5919 21.3753 83.5919 22.122C83.5919 22.8593 83.7553 23.4333 84.0819 23.844C84.4086 24.2453 84.8519 24.446 85.4119 24.446C86.2053 24.446 86.7233 24.0913 86.9659 23.382H89.0799C88.8653 24.222 88.4406 24.8893 87.8059 25.384C87.1713 25.8787 86.3779 26.126 85.4259 26.126C84.6793 26.126 84.0166 25.9627 83.4379 25.636C82.8593 25.3 82.4066 24.8333 82.0799 24.236C81.7533 23.6293 81.5899 22.9247 81.5899 22.122ZM91.5098 17.32C91.1645 17.32 90.8751 17.2127 90.6418 16.998C90.4178 16.774 90.3058 16.4987 90.3058 16.172C90.3058 15.8453 90.4178 15.5747 90.6418 15.36C90.8751 15.136 91.1645 15.024 91.5098 15.024C91.8551 15.024 92.1398 15.136 92.3638 15.36C92.5971 15.5747 92.7138 15.8453 92.7138 16.172C92.7138 16.4987 92.5971 16.774 92.3638 16.998C92.1398 17.2127 91.8551 17.32 91.5098 17.32ZM92.4758 18.244V26H90.5158V18.244H92.4758ZM96.3723 19.364C96.6243 19.0093 96.9696 18.7153 97.4083 18.482C97.8563 18.2393 98.365 18.118 98.9343 18.118C99.597 18.118 100.194 18.2813 100.726 18.608C101.268 18.9347 101.692 19.4013 102 20.008C102.318 20.6053 102.476 21.3007 102.476 22.094C102.476 22.8873 102.318 23.592 102 24.208C101.692 24.8147 101.268 25.286 100.726 25.622C100.194 25.958 99.597 26.126 98.9343 26.126C98.365 26.126 97.861 26.0093 97.4223 25.776C96.993 25.5427 96.643 25.2487 96.3723 24.894V29.696H94.4123V18.244H96.3723V19.364ZM100.474 22.094C100.474 21.6273 100.376 21.226 100.18 20.89C99.9936 20.5447 99.7416 20.2833 99.4243 20.106C99.1163 19.9287 98.7803 19.84 98.4163 19.84C98.0616 19.84 97.7256 19.9333 97.4083 20.12C97.1003 20.2973 96.8483 20.5587 96.6523 20.904C96.4656 21.2493 96.3723 21.6553 96.3723 22.122C96.3723 22.5887 96.4656 22.9947 96.6523 23.34C96.8483 23.6853 97.1003 23.9513 97.4083 24.138C97.7256 24.3153 98.0616 24.404 98.4163 24.404C98.7803 24.404 99.1163 24.3107 99.4243 24.124C99.7416 23.9373 99.9936 23.6713 100.18 23.326C100.376 22.9807 100.474 22.57 100.474 22.094ZM103.397 22.094C103.397 21.31 103.551 20.6147 103.859 20.008C104.176 19.4013 104.601 18.9347 105.133 18.608C105.674 18.2813 106.276 18.118 106.939 18.118C107.517 18.118 108.021 18.2347 108.451 18.468C108.889 18.7013 109.239 18.9953 109.501 19.35V18.244H111.475V26H109.501V24.866C109.249 25.23 108.899 25.5333 108.451 25.776C108.012 26.0093 107.503 26.126 106.925 26.126C106.271 26.126 105.674 25.958 105.133 25.622C104.601 25.286 104.176 24.8147 103.859 24.208C103.551 23.592 103.397 22.8873 103.397 22.094ZM109.501 22.122C109.501 21.646 109.407 21.24 109.221 20.904C109.034 20.5587 108.782 20.2973 108.465 20.12C108.147 19.9333 107.807 19.84 107.443 19.84C107.079 19.84 106.743 19.9287 106.435 20.106C106.127 20.2833 105.875 20.5447 105.679 20.89C105.492 21.226 105.399 21.6273 105.399 22.094C105.399 22.5607 105.492 22.9713 105.679 23.326C105.875 23.6713 106.127 23.9373 106.435 24.124C106.752 24.3107 107.088 24.404 107.443 24.404C107.807 24.404 108.147 24.3153 108.465 24.138C108.782 23.9513 109.034 23.69 109.221 23.354C109.407 23.0087 109.501 22.598 109.501 22.122ZM115.671 19.854V23.606C115.671 23.8673 115.732 24.0587 115.853 24.18C115.984 24.292 116.198 24.348 116.497 24.348H117.407V26H116.175C114.523 26 113.697 25.1973 113.697 23.592V19.854H112.773V18.244H113.697V16.326H115.671V18.244H117.407V19.854H115.671ZM126.027 21.954C126.027 22.234 126.008 22.486 125.971 22.71H120.301C120.347 23.27 120.543 23.7087 120.889 24.026C121.234 24.3433 121.659 24.502 122.163 24.502C122.891 24.502 123.409 24.1893 123.717 23.564H125.831C125.607 24.3107 125.177 24.9267 124.543 25.412C123.908 25.888 123.129 26.126 122.205 26.126C121.458 26.126 120.786 25.9627 120.189 25.636C119.601 25.3 119.139 24.8287 118.803 24.222C118.476 23.6153 118.313 22.9153 118.313 22.122C118.313 21.3193 118.476 20.6147 118.803 20.008C119.129 19.4013 119.587 18.9347 120.175 18.608C120.763 18.2813 121.439 18.118 122.205 18.118C122.942 18.118 123.6 18.2767 124.179 18.594C124.767 18.9113 125.219 19.364 125.537 19.952C125.863 20.5307 126.027 21.198 126.027 21.954ZM123.997 21.394C123.987 20.89 123.805 20.4887 123.451 20.19C123.096 19.882 122.662 19.728 122.149 19.728C121.663 19.728 121.253 19.8773 120.917 20.176C120.59 20.4653 120.389 20.8713 120.315 21.394H123.997ZM139.151 26H137.191L132.753 19.294V26H130.793V16.214H132.753L137.191 22.934V16.214H139.151V26ZM144.532 26.126C143.785 26.126 143.113 25.9627 142.516 25.636C141.919 25.3 141.447 24.8287 141.102 24.222C140.766 23.6153 140.598 22.9153 140.598 22.122C140.598 21.3287 140.771 20.6287 141.116 20.022C141.471 19.4153 141.951 18.9487 142.558 18.622C143.165 18.286 143.841 18.118 144.588 18.118C145.335 18.118 146.011 18.286 146.618 18.622C147.225 18.9487 147.701 19.4153 148.046 20.022C148.401 20.6287 148.578 21.3287 148.578 22.122C148.578 22.9153 148.396 23.6153 148.032 24.222C147.677 24.8287 147.192 25.3 146.576 25.636C145.969 25.9627 145.288 26.126 144.532 26.126ZM144.532 24.418C144.887 24.418 145.218 24.334 145.526 24.166C145.843 23.9887 146.095 23.7273 146.282 23.382C146.469 23.0367 146.562 22.6167 146.562 22.122C146.562 21.3847 146.366 20.82 145.974 20.428C145.591 20.0267 145.12 19.826 144.56 19.826C144 19.826 143.529 20.0267 143.146 20.428C142.773 20.82 142.586 21.3847 142.586 22.122C142.586 22.8593 142.768 23.4287 143.132 23.83C143.505 24.222 143.972 24.418 144.532 24.418ZM160.768 18.244L158.5 26H156.386L154.972 20.582L153.558 26H151.43L149.148 18.244H151.136L152.508 24.152L153.992 18.244H156.064L157.52 24.138L158.892 18.244H160.768Z" fill="white"/>
</svg>
